# xmcd
#
# Track frame offsets: 
#        150
#        25281
#        50929
#        84753
#        113615
#        141736
#        164649
#        207994
#        232479
#        263148
#        284028
#        317995
#
# Disc length: 4698 seconds
#
# Revision: 1
# Processed by: cddbd v1.5.2PL0 Copyright (c) Steve Scherf et al.
# Submitted via: ExactAudioCopy v1.0b3
#
DISCID=c312580c
DTITLE=Uwe Timm - Halbschatten CD 3
DYEAR=2008
DGENRE=Hörbuch
TTITLE0=Halbschatten CD 3-01
TTITLE1=Halbschatten CD 3-02
TTITLE2=Halbschatten CD 3-03
TTITLE3=Halbschatten CD 3-04
TTITLE4=Halbschatten CD 3-05
TTITLE5=Halbschatten CD 3-06
TTITLE6=Halbschatten CD 3-07
TTITLE7=Halbschatten CD 3-08
TTITLE8=Halbschatten CD 3-09
TTITLE9=Halbschatten CD 3-10
TTITLE10=Halbschatten CD 3-11
TTITLE11=Halbschatten CD 3-12
EXTD=YEAR: 2008
EXTT0=
EXTT1=
EXTT2=
EXTT3=
EXTT4=
EXTT5=
EXTT6=
EXTT7=
EXTT8=
EXTT9=
EXTT10=
EXTT11=
PLAYORDER=
